HIERARCHY
ROOT joint_Root
{
  OFFSET 0.0 0.0 0.0
  CHANNELS 6 Xposition Yposition Zposition Zrotation Xrotation Yrotation
  JOINT Hips
  {
    OFFSET 0.0 93.9241 -3.0
    CHANNELS 6 Xposition Yposition Zposition Zrotation Xrotation Yrotation
    JOINT Spine
    {
      OFFSET 15.7357 0.0 0.0
      CHANNELS 6 Xposition Yposition Zposition Zrotation Xrotation Yrotation
      JOINT Chest
      {
        OFFSET 8.98455 -0.40621 0.0
        CHANNELS 6 Xposition Yposition Zposition Zrotation Xrotation Yrotation
        JOINT Neck
        {
          OFFSET 16.3773 0.0 0.0
          CHANNELS 6 Xposition Yposition Zposition Zrotation Xrotation Yrotation
          JOINT Head
          {
            OFFSET 6.45672 0.0 0.0
            CHANNELS 6 Xposition Yposition Zposition Zrotation Xrotation Yrotation
            End Site
            {
              OFFSET 0.0 0.0 0.0
            }
          }
        }
        JOINT Shoulder_L
        {
          OFFSET 12.9942 -0.24272 4.98039
          CHANNELS 6 Xposition Yposition Zposition Zrotation Xrotation Yrotation
          JOINT UpperArm_L
          {
            OFFSET 5.34809 0.0 0.0
            CHANNELS 6 Xposition Yposition Zposition Zrotation Xrotation Yrotation
            JOINT LowerArm_L
            {
              OFFSET 24.3286 2e-05 0.0
              CHANNELS 6 Xposition Yposition Zposition Zrotation Xrotation Yrotation
              JOINT Hand_L
              {
                OFFSET 22.2916 0.0 0.0
                CHANNELS 6 Xposition Yposition Zposition Zrotation Xrotation Yrotation
                End Site
                {
                  OFFSET 0.0 0.0 0.0
                }
              }
            }
          }
        }
        JOINT Shoulder_R
        {
          OFFSET 12.9945 -0.24272 -4.98039
          CHANNELS 6 Xposition Yposition Zposition Zrotation Xrotation Yrotation
          JOINT UpperArm_R
          {
            OFFSET -5.34813 0.0 0.0
            CHANNELS 6 Xposition Yposition Zposition Zrotation Xrotation Yrotation
            JOINT LowerArm_R
            {
              OFFSET -24.3289 0.00032 0.0
              CHANNELS 6 Xposition Yposition Zposition Zrotation Xrotation Yrotation
              JOINT Hand_R
              {
                OFFSET -22.2915 -0.00011 0.0
                CHANNELS 6 Xposition Yposition Zposition Zrotation Xrotation Yrotation
                End Site
                {
                  OFFSET 0.0 0.0 0.0
                }
              }
            }
          }
        }
      }
    }
    JOINT UpperLeg_L
    {
      OFFSET -2.19248 -6.46944 0.0
      CHANNELS 6 Xposition Yposition Zposition Zrotation Xrotation Yrotation
      JOINT LowerLeg_L
      {
        OFFSET 39.0811 0.0 -1e-05
        CHANNELS 6 Xposition Yposition Zposition Zrotation Xrotation Yrotation
        JOINT Foot_L
        {
          OFFSET 40.9854 0.0 -1e-05
          CHANNELS 6 Xposition Yposition Zposition Zrotation Xrotation Yrotation
          JOINT Toes_L
          {
            OFFSET 11.7543 0.0 0.0
            CHANNELS 6 Xposition Yposition Zposition Zrotation Xrotation Yrotation
            End Site
            {
              OFFSET 0.0 0.0 0.0
            }
          }
        }
      }
    }
    JOINT UpperLeg_R
    {
      OFFSET -2.19251 6.46944 0.0
      CHANNELS 6 Xposition Yposition Zposition Zrotation Xrotation Yrotation
      JOINT LowerLeg_R
      {
        OFFSET -39.0811 -0.00228 -0.04019
        CHANNELS 6 Xposition Yposition Zposition Zrotation Xrotation Yrotation
        JOINT Foot_R
        {
          OFFSET -40.9854 0.0 0.0
          CHANNELS 6 Xposition Yposition Zposition Zrotation Xrotation Yrotation
          JOINT Toes_R
          {
            OFFSET -11.7543 0.0 0.0
            CHANNELS 6 Xposition Yposition Zposition Zrotation Xrotation Yrotation
            End Site
            {
              OFFSET 0.0 0.0 0.0
            }
          }
        }
      }
    }
  }
}
MOTION
Frames: 10
Frame Time: 0.0333333
0.0 0.0 0.0 -0.0 0.0 -0.0 -2.78777 89.9004 -1.4045 85.4397 4.22149 1.98804 15.7357 1e-05 -0.0 -87.92429 88.02762 89.1707 8.98455 -0.40621 -0.0 -3.82252 0.01675 2.49437 16.3773 -0.0 -0.0 -6.57178 -2.27138 -1.57974 6.45672 -0.0 -0.0 3.99085 -4.07638 -1.20197 12.9942 -0.24272 4.98039 89.75569 1.41685 84.77689 5.34809 -1e-05 -0.0 -77.2843 -9.96996 -9.66249 24.3286 2e-05 0.0 5.52406 12.4535 -24.1505 22.2916 -0.0 0.0 26.7359 5.31172 -0.26144 12.9945 -0.24272 -4.98039 89.03961 4.99729 85.89219 -5.34813 -0.0 -0.0 -65.827 -18.4266 19.5562 -24.3289 0.00032 -1e-05 0.26948 3.17304 -4.87397 -22.2915 -0.00011 -0.0 24.2823 5.45226 -4.71755 -2.19248 -6.46944 -0.0 4.632 3.6018 -17.00731 39.0811 -1e-05 -1e-05 -0.37619 0.12578 70.66151 40.9854 -1e-05 -1e-05 2.3137 -4.60979 -34.5799 11.7543 -0.0 0.0 0.43333 -0.52437 -21.5349 -2.19251 6.46944 -0.0 11.974 6.00569 -17.56699 -39.0811 -0.00228 -0.04019 0.0744 -0.0696 30.412 -40.9854 1e-05 1e-05 5.98257 -11.9885 -62.37671 -11.7543 -1e-05 -1e-05 0.01795 -0.01862 -16.7178
0.0 0.0 0.0 -0.0 0.0 -0.0 -2.68891 90.449 2.22942 86.41171 3.58429 2.03105 15.7357 1e-05 -0.0 -75.24004 87.78848 76.11111 8.98455 -0.40621 -0.0 -3.49683 1.04067 1.77325 16.3773 -0.0 -0.0 -6.49234 -2.28652 -1.34609 6.45672 -0.0 -0.0 3.98837 -4.62001 -1.30067 12.9942 -0.24272 4.98039 89.77349 1.28937 84.9688 5.34809 -1e-05 -0.0 -77.74121 -10.7169 -6.52472 24.3286 2e-05 0.0 3.90874 11.3571 -19.1304 22.2916 -0.0 0.0 24.6454 5.30779 -0.14704 12.9945 -0.24272 -4.98039 89.1406 4.75734 85.2528 -5.34813 -0.0 -0.0 -67.06799 -17.3126 15.2623 -24.3289 0.00032 -1e-05 0.41548 2.91274 -8.14383 -22.2915 -0.00011 -0.0 25.4323 5.46998 -5.36873 -2.19248 -6.46944 -0.0 3.023 4.50054 -22.3253 39.0811 -1e-05 -1e-05 -0.47347 0.14979 71.65671 40.9854 -1e-05 -1e-05 5.8809 -8.81635 -39.7898 11.7543 -0.0 0.0 0.45071 -0.54744 -21.7452 -2.19251 6.46944 -0.0 10.834 5.70986 -13.75 -39.0811 -0.00228 -0.04019 0.07322 -0.0745 28.6474 -40.9854 1e-05 1e-05 5.51324 -11.8046 -64.23881 -11.7543 -1e-05 -1e-05 0.00196 -0.00203 -16.5896
0.0 0.0 0.0 -0.0 0.0 -0.0 -2.48399 90.9748 5.74158 87.7581 2.55682 1.75493 15.7357 1e-05 -0.0 -64.86192 87.52417 65.20898 8.98455 -0.40621 -0.0 -3.29035 2.06906 0.75306 16.3773 -0.0 -0.0 -6.5053 -2.12634 -1.09591 6.45672 -0.0 -0.0 3.90907 -4.92011 -1.29326 12.9942 -0.24272 4.98039 89.79698 1.1102 85.36639 5.34809 -1e-05 -0.0 -77.70689 -12.2331 -2.64634 24.3286 2e-05 0.0 2.64281 9.80424 -15.1641 22.2916 -0.0 0.0 22.7281 5.30131 0.03555 12.9945 -0.24272 -4.98039 89.27461 4.35529 84.46609 -5.34813 -0.0 -0.0 -68.11441 -16.4482 10.9243 -24.3289 0.00032 -1e-05 0.5627 2.72174 -11.7061 -22.2915 -0.00011 -0.0 26.2373 5.47313 -5.48771 -2.19248 -6.46944 -0.0 1.381 4.74793 -26.5604 39.0811 -1e-05 -1e-05 -0.46542 0.1798 68.3083 40.9854 -1e-05 -1e-05 8.34062 -12.4816 -43.2695 11.7543 -0.0 0.0 0.44159 -0.53532 -21.6348 -2.19251 6.46944 -0.0 9.20301 5.71767 -10.028 -39.0811 -0.00228 -0.04019 0.07084 -0.08473 26.2799 -40.9854 1e-05 1e-05 5.22039 -10.7512 -65.7049 -11.7543 -1e-05 -1e-05 0.00931 -0.00965 -16.6485
0.0 0.0 0.0 -0.0 0.0 -0.0 -2.28243 91.3713 9.11287 88.8656 1.78047 1.23863 15.7357 1e-05 -0.0 -58.54513 87.35062 58.49212 8.98455 -0.40621 -0.0 -3.24655 2.76878 -0.02702 16.3773 -0.0 -0.0 -6.52567 -1.91098 -1.04956 6.45672 -0.0 -0.0 3.73597 -5.04367 -1.35496 12.9942 -0.24272 4.98039 89.77981 1.16389 85.70819 5.34809 -1e-05 -0.0 -76.98869 -14.7449 1.97139 24.3286 2e-05 0.0 1.87123 8.68719 -12.2032 22.2916 -0.0 0.0 21.4027 5.30479 -0.06266 12.9945 -0.24272 -4.98039 89.42979 3.70817 83.74741 -5.34813 -0.0 -0.0 -68.94269 -16.2258 6.49824 -24.3289 0.00032 -1e-05 0.77067 2.87963 -15.0052 -22.2915 -0.00011 -0.0 27.1693 5.47996 -5.74486 -2.19248 -6.46944 -0.0 0.41201 5.20321 -29.6386 39.0811 -1e-05 -1e-05 -0.37851 0.19945 61.20539 40.9854 -1e-05 -1e-05 8.92972 -13.5526 -46.0409 11.7543 -0.0 0.0 0.4522 -0.54945 -21.7635 -2.19251 6.46944 -0.0 7.674 6.75981 -6.49199 -39.0811 -0.00228 -0.04019 0.04473 -0.04798 23.4198 -40.9854 1e-05 1e-05 5.07966 -9.03049 -66.8724 -11.7543 -1e-05 -1e-05 0.01104 -0.01145 -16.6624
0.0 0.0 0.0 -0.0 0.0 -0.0 -2.17183 91.5543 12.3716 89.3362 0.95926 0.48563 15.7357 1e-05 -0.0 -52.56482 87.26312 52.33492 8.98455 -0.40621 -0.0 -3.41567 3.34796 -0.36072 16.3773 -0.0 -0.0 -6.66775 -1.71216 -0.96241 6.45672 -0.0 -0.0 3.59782 -5.03317 -1.53078 12.9942 -0.24272 4.98039 89.73691 1.33492 86.1496 5.34809 -1e-05 -0.0 -75.37361 -17.768 7.17801 24.3286 2e-05 0.0 1.43148 8.01407 -10.1613 22.2916 -0.0 0.0 20.2509 5.31206 -0.26968 12.9945 -0.24272 -4.98039 89.5423 3.11245 83.36919 -5.34813 -0.0 -0.0 -69.54419 -15.9656 1.8626 -24.3289 0.00032 -1e-05 0.9686 3.0451 -17.6701 -22.2915 -0.00011 -0.0 28.5076 5.4833 -5.87601 -2.19248 -6.46944 -0.0 0.37199 5.23334 -31.06651 39.0811 -1e-05 -1e-05 -0.24167 0.19071 50.2717 40.9854 -1e-05 -1e-05 7.98443 -13.1632 -48.963 11.7543 -0.0 0.0 0.43652 -0.5286 -21.5735 -2.19251 6.46944 -0.0 7.018 6.30923 -3.217 -39.0811 -0.00228 -0.04019 0.00968 0.02406 20.1907 -40.9854 1e-05 1e-05 4.76791 -8.92851 -67.5744 -11.7543 -1e-05 -1e-05 -0.04692 0.0342 -16.5732
0.0 0.0 0.0 -0.0 0.0 -0.0 -2.08366 91.519 15.6689 89.2129 -0.46222 -0.22737 15.7357 1e-05 -0.0 -45.75705 87.08322 45.53006 8.98455 -0.40621 -0.0 -3.58341 4.09012 -0.32618 16.3773 -0.0 -0.0 -7.00689 -1.36736 -0.87811 6.45672 -0.0 -0.0 3.49615 -5.00836 -1.62346 12.9942 -0.24272 4.98039 89.6262 1.7988 86.74001 5.34809 -1e-05 -0.0 -72.4979 -20.736 12.867 24.3286 2e-05 0.0 1.1384 7.47618 -8.68173 22.2916 -0.0 0.0 19.5141 5.31875 -0.46016 12.9945 -0.24272 -4.98039 89.59071 2.9071 83.01649 -5.34813 -0.0 -0.0 -69.7758 -15.9881 -2.63245 -24.3289 0.00032 -1e-05 1.36092 3.74432 -20.0036 -22.2915 -0.00011 -0.0 29.2648 5.47923 -5.71819 -2.19248 -6.46944 -0.0 0.804 4.02023 -30.1051 39.0811 -1e-05 -1e-05 -0.11904 0.15769 35.30669 40.9854 -1e-05 -1e-05 6.95315 -11.9793 -50.6103 11.7543 -0.0 0.0 0.4394 -0.53242 -21.6083 -2.19251 6.46944 -0.0 7.124 4.96525 0.204 -39.0811 -0.00228 -0.04019 0.00199 0.03873 16.7927 -40.9854 1e-05 1e-05 5.63492 -9.4933 -68.00241 -11.7543 -1e-05 -1e-05 0.01595 -0.01654 -16.7018
0.0 0.0 0.0 -0.0 0.0 -0.0 -2.0018 91.2436 19.2273 88.614 -2.19055 -0.5894 15.7357 1e-05 -0.0 -40.30803 86.80959 40.27607 8.98455 -0.40621 -0.0 -3.64354 4.86614 0.0924 16.3773 -0.0 -0.0 -7.17518 -0.88934 -0.83188 6.45672 -0.0 -0.0 3.27777 -4.95609 -1.79315 12.9942 -0.24272 4.98039 89.49129 2.29289 87.51089 5.34809 -1e-05 -0.0 -68.91811 -23.3969 18.6437 24.3286 2e-05 0.0 0.91586 7.19814 -7.27059 22.2916 -0.0 0.0 19.2346 5.31404 -0.32467 12.9945 -0.24272 -4.98039 89.65 2.67797 82.4483 -5.34813 -0.0 -0.0 -70.10591 -16.131 -6.57577 -24.3289 0.00032 -1e-05 1.60151 3.9884 -21.9117 -22.2915 -0.00011 -0.0 30.382 5.48678 -6.00751 -2.19248 -6.46944 -0.0 1.381 1.80919 -26.09 39.0811 -1e-05 -1e-05 -0.04132 0.10959 16.806 40.9854 -1e-05 -1e-05 5.50251 -8.42578 -51.76151 11.7543 -0.0 0.0 0.43036 -0.52043 -21.499 -2.19251 6.46944 -0.0 7.463 4.43018 2.845 -39.0811 -0.00228 -0.04019 0.02937 -0.05898 15.8004 -40.9854 1e-05 1e-05 7.01862 -8.78787 -68.318 -11.7543 -1e-05 -1e-05 -0.13792 -0.41174 -17.7702
0.0 0.0 0.0 -0.0 0.0 -0.0 -1.90955 90.5497 23.2456 87.83441 -3.66356 -0.75624 15.7357 1e-05 -0.0 -36.29699 86.54827 36.53994 8.98455 -0.40621 -0.0 -3.69943 5.53652 0.66517 16.3773 -0.0 -0.0 -7.13307 -0.47298 -0.87276 6.45672 -0.0 -0.0 3.03855 -4.9944 -1.82502 12.9942 -0.24272 4.98039 89.49501 2.14001 88.2816 5.34809 -1e-05 -0.0 -65.6861 -25.666 23.849 24.3286 2e-05 0.0 0.7022 7.00638 -5.73655 22.2916 -0.0 0.0 19.5984 5.30169 0.0244 12.9945 -0.24272 -4.98039 89.7439 2.09222 81.98 -5.34813 -0.0 -0.0 -70.57079 -15.4068 -9.65961 -24.3289 0.00032 -1e-05 1.91685 4.41669 -23.5009 -22.2915 -0.00011 -0.0 31.5982 5.48737 -6.03518 -2.19248 -6.46944 -0.0 1.743 -0.50614 -24.3462 39.0811 -1e-05 -1e-05 -0.00197 0.00688 5.71347 40.9854 -1e-05 -1e-05 3.10628 -3.55417 -55.854 11.7543 -0.0 0.0 0.42862 -0.51815 -21.4781 -2.19251 6.46944 -0.0 7.73501 3.60121 4.515 -39.0811 -0.00228 -0.04019 0.05425 -0.11998 17.7718 -40.9854 1e-05 1e-05 6.25908 -8.16545 -69.56779 -11.7543 -1e-05 -1e-05 -0.47054 -1.16468 -19.8826
0.0 0.0 0.0 -0.0 0.0 -0.0 -1.64408 89.9124 27.5427 87.64422 -4.47553 -1.31061 15.7357 1e-05 -0.0 -31.68803 86.49385 31.99304 8.98455 -0.40621 -0.0 -4.10943 5.93115 0.82193 16.3773 -0.0 -0.0 -7.09159 -0.3188 -0.79912 6.45672 -0.0 -0.0 2.95634 -5.07775 -1.94302 12.9942 -0.24272 4.98039 89.5294 1.89233 88.9678 5.34809 -1e-05 -0.0 -61.86241 -28.39141 28.5813 24.3286 2e-05 0.0 0.53549 7.27169 -4.22376 22.2916 -0.0 0.0 20.2817 5.28167 0.57952 12.9945 -0.24272 -4.98039 89.7879 1.7338 81.9772 -5.34813 -0.0 -0.0 -70.4586 -13.6932 -11.8312 -24.3289 0.00032 -1e-05 2.06762 4.5866 -24.3095 -22.2915 -0.00011 -0.0 32.3442 5.49419 -6.30036 -2.19248 -6.46944 -0.0 2.16301 0.18531 -24.0666 39.0811 -1e-05 -1e-05 0.00015 -0.03313 0.28607 40.9854 -1e-05 -1e-05 2.33106 -2.29628 -58.9453 11.7543 -0.0 0.0 0.42474 -0.51303 -21.4313 -2.19251 6.46944 -0.0 6.917 4.33868 5.38599 -39.0811 -0.00228 -0.04019 0.0716 -0.13954 20.3509 -40.9854 1e-05 1e-05 5.67494 -6.49093 -69.45481 -11.7543 -1e-05 -1e-05 -0.91037 -2.17172 -23.9019
0.0 0.0 0.0 -0.0 0.0 -0.0 -1.29505 89.368 32.3127 87.85841 -5.31704 -1.86826 15.7357 1e-05 -0.0 -26.54203 86.49401 26.78701 8.98455 -0.40621 -0.0 -4.66056 6.24093 0.74364 16.3773 -0.0 -0.0 -6.92759 -0.11327 -0.75402 6.45672 -0.0 -0.0 3.07364 -5.12917 -1.97697 12.9942 -0.24272 4.98039 89.5538 1.71493 89.5854 5.34809 -1e-05 -0.0 -58.44409 -29.9584 32.4968 24.3286 2e-05 0.0 0.40814 8.18443 -2.86493 22.2916 -0.0 0.0 21.1493 5.2593 1.18386 12.9945 -0.24272 -4.98039 89.79642 1.64993 82.03571 -5.34813 -0.0 -0.0 -70.3438 -12.4574 -13.1827 -24.3289 0.00032 -1e-05 2.28957 5.0837 -24.295 -22.2915 -0.00011 -0.0 32.9215 5.5031 -6.65869 -2.19248 -6.46944 -0.0 1.144 -1.10493 -24.3939 39.0811 -1e-05 -1e-05 7e-05 -0.03241 0.86631 40.9854 -1e-05 -1e-05 2.54748 -0.3547 -58.8907 11.7543 -0.0 0.0 0.41315 -0.49779 -21.2919 -2.19251 6.46944 -0.0 5.707 4.48868 6.092 -39.0811 -0.00228 -0.04019 0.06591 -0.09932 23.0039 -40.9854 1e-05 1e-05 5.97 -5.65692 -66.7606 -11.7543 -1e-05 -1e-05 -1.22804 -3.37054 -31.1897
